<?xml version="1.0" encoding="utf-8"?>
<!-- Generator: Adobe Illustrator 16.0.0, SVG Export Plug-In . SVG Version: 6.00 Build 0)  -->
<!DOCTYPE svg PUBLIC "-//W3C//DTD SVG 1.1//EN" "http://www.w3.org/Graphics/SVG/1.1/DTD/svg11.dtd">
<svg version="1.1" id="Layer_1" xmlns="http://www.w3.org/2000/svg" xmlns:xlink="http://www.w3.org/1999/xlink" x="0px" y="0px"
	 width="300px" height="300px" viewBox="0 0 300 300" enable-background="new 0 0 300 300" xml:space="preserve">
<g>
	<path fill="#FFFFFF" d="M184.039,163.198c-0.006,0.002-0.012,0.002-0.018,0.003c3.916-4.576,7.059-9.829,9.23-15.564
		c22.889,12.403,48.096,30.312,48.096,30.312c-8.92-11.888-25.479-25.911-45.646-38.996c0.354-1.856,0.607-3.746,0.762-5.665
		c19.234,3.185,32.689,6.557,32.689,6.557c-6.996-5.16-18.598-10.05-32.602-13.96c-0.121-2.036-0.363-4.038-0.707-6.005
		c14.168-7.587,25.91-15.764,32.988-23.208c0,0-17.096,9.369-34.49,16.898c-0.814-2.652-1.832-5.214-3.035-7.671
		c0.176-0.109,0.357-0.214,0.566-0.302c10.666-15.818,10.24-23.371,10.24-23.371c-6.875,11.889-11.307,15.526-14.031,18.02
		c-4.293-6.56-10-12.109-16.703-16.197c0.002-0.003,0.004-0.005,0.004-0.005c-0.119-0.078-0.24-0.156-0.363-0.229
		c-5.564-3.903,1.328-16.7,6.758-16.14c-0.002-0.008-0.002-0.017-0.004-0.025c1.324,0.166,2.668,0.26,4.037,0.26
		c17.846,0,32.312-14.467,32.312-32.312S199.656,3.286,181.811,3.286c-7.492,0-14.381,2.556-19.861,6.835
		c0.078-0.001,0.156-0.012,0.234-0.012c8.121,0,14.703,6.583,14.703,14.704c0,8.12-6.582,14.703-14.703,14.703
		c-5.309,0-9.947-2.823-12.531-7.042c-0.099,1.029-0.153,2.07-0.153,3.124c0,11.236,5.737,21.127,14.44,26.917
		c-0.018,0.004-0.035,0.007-0.051,0.01c4.08,4.282-1.475,16.623-8.303,15.117c-0.166-0.037-0.334-0.067-0.502-0.099
		c0,0.005,0,0.01-0.002,0.015c-3.57-0.764-7.27-1.175-11.068-1.175c-3.102,0-6.135,0.284-9.089,0.798
		c-3.787-2.537-15.437-31.938-8.313-43.122c7.497-11.771-5.341-10.728-4.379-0.836c0.851,8.75,0.277,17.521,3.312,28.011
		c3.105,10.726,6.988,16.301,3.431,17.332c-0.187,0.054-0.327,0.098-0.442,0.134c-5.324,1.637-10.28,4.102-14.737,7.233
		c-0.149,0.098-0.353,0.237-0.621,0.427c-4.19,2.965-6.8-6.174-15.607-19.002c-8.614-12.544-18.516-19.643-27.158-28.276
		c-9.771-9.76-22.02,3.303-2.902,5.505c19.119,2.202,41.846,44.821,38.754,47.759c0,0,0.022-0.019,0.055-0.044
		c-1.569,1.61-3.042,3.316-4.396,5.116c0,0-0.006-0.009-0.008-0.013c-0.063,0.083-0.128,0.166-0.191,0.249
		c-5.289,6.372-15.302,0.269-14.634-4.953c0.02-0.071,0.034-0.146,0.053-0.217h-0.002c0.439-1.661,0.676-3.404,0.676-5.204
		c0-9.603-6.668-17.643-15.625-19.757c0.505,0.949,0.793,2.03,0.793,3.18c0,3.748-3.039,6.787-6.787,6.787s-6.787-3.039-6.787-6.787
		c0-0.772,0.135-1.511,0.373-2.202c-7.381,3.041-12.578,10.302-12.578,18.779c0,11.214,9.092,20.307,20.305,20.307
		c4.952,0,9.488-1.775,13.013-4.72c0.042-0.034,0.084-0.067,0.126-0.103c4.749-3.025,14.9,4.006,12.682,11.966
		c-0.005,0.019-0.01,0.039-0.015,0.057c0.009,0.001,0.018,0.004,0.027,0.005c-1.268,4.527-1.961,9.293-1.961,14.225
		c0,1.104,0.045,2.198,0.113,3.284c-3.67,0.274-8.976,1.79-23.984-1.121c0,0,5.509,5.362,24.802,7.666
		c0.417,2.208,0.97,4.368,1.655,6.469c-15.281,6.976-28.338,15.269-35.319,22.61c0,0,21.819-11.958,37.434-17.173
		c1.084,2.385,2.338,4.675,3.752,6.855c-10.853,13.731-19.008,27.207-22.468,37.523c0,0,13.239-18.043,26.399-32.213
		c1.307,1.55,2.702,3.02,4.177,4.408c0,0-0.004,0.006-0.007,0.01c-0.951,19.055,3.32,25.298,3.32,25.298
		c-0.222-11.545,1.096-17.203,2.142-20.818c7.602,5.448,16.71,8.918,26.584,9.668c-0.135,0.108-0.206,0.169-0.206,0.169
		c23.855,4.598,14.699,25.149,12.845,34.691c14.66-9.909,33.139-19.451,55.416-18.717
		C197.232,189.202,174.723,181.653,184.039,163.198z"/>
	<g>
		<path fill="#FFFFFF" d="M88.583,260.015c0-3.161-1.997-6.24-5.742-6.24c-3.994,0-7.157,2.662-10.07,5.16l1.083-5.16H61.871
			l-5.733,27.044c-3.833,4.91-9.589,7.906-15.901,7.906c-7.988,0-9.985-5.325-9.985-12.981c0-16.976,8.154-38.862,17.309-38.862
			c3.745,0,5.076,2.414,5.076,5.076c0,3.163-1.831,6.658-3.828,7.656c1.582,1.831,3.412,2.164,4.744,2.164
			c4.244,0,5.825-3.245,5.825-7.656c0-8.071-6.074-11.151-13.897-11.151c-21.802,0-29.042,28.211-29.042,43.273
			c0,14.979,5.908,20.471,18.224,20.471c5.989,0,14.578-2.711,20.091-9.359l-1.702,8.027h11.983l6.658-31.621
			c2.08-1.915,3.578-3.162,6.074-3.162c2.497,0,0.166,5.492,4.827,5.492C86.669,266.091,88.583,262.928,88.583,260.015z"/>
		<path fill="#FFFFFF" d="M277.82,253.774c-3.994,0-7.156,2.662-10.068,5.16l1.082-5.16h-11.982l-5.666,26.722
			c-4.156,4.739-8.15,8.395-14.721,8.395c-3.994,0-5.992-1.33-5.992-6.989c0-0.999,0.084-2.164,0.166-3.328
			c9.988-0.583,19.141-7.989,19.141-17.559c0-4.161-1.748-7.989-9.152-7.989c-17.061,0-22.471,20.056-22.471,29.625
			c0,0.144,0.014,0.273,0.016,0.414c-1.518,2.818-3.891,4.745-6.422,4.745c-2.33,0-3.41-0.75-3.41-3.079
			c0-0.748,0.082-1.581,0.332-2.662l5.326-24.965h4.992l0.666-3.329h-4.992l2.828-13.148l-12.316,1.664l-2.496,11.484h-2.744
			l-0.668,3.329h2.748l-4.994,23.384v0.002c-1.582,1.248-3.66,2.827-5.906,4.075c0.168-0.915,0.25-1.997,0.25-3.079
			c0-5.493-0.832-8.738-1.83-30.291l-12.316,1.664c-4.494,7.74-8.82,12.482-12.898,13.149c-0.416-9.237-4.244-12.482-9.736-12.482
			c-1.664,0-3.412,0.249-6.824,2.329l3.994-18.724l-12.315,1.664l-8.904,41.692c-0.001,0.008-0.003,0.017-0.005,0.025
			c-1.25,4.149-3.494,7.796-6.733,7.796c-2.33,0-3.411-1.249-3.411-3.578c0-0.748,0.083-1.581,0.333-2.662l5.992-28.294h-11.983
			l-0.915,4.41v-0.582c0-2.414-1.998-4.244-6.741-4.244c-14.479,0-21.386,17.892-21.386,29.125c0,9.902,5.409,13.398,11.067,13.398
			c5.909,0,9.82-3.829,12.399-7.656c0.5,4.993,3.495,7.656,8.156,7.656c3.43,0,8.607-1.075,12.975-7.616
			c1.084,4.812,4.915,7.616,11.321,7.616c16.312,0,21.97-15.645,22.718-25.714c4.826-1.665,9.236-5.409,13.148-11.233
			c0.914,15.395,1.83,17.974,1.83,22.634c0,5.825-1.58,7.739-5.242,7.739c-3.162,0-4.826-2.331-4.826-6.242
			c0.416,0.833,1.414,1.083,2.246,1.083c2.164,0,3.994-1.748,3.994-3.745c0-2.413-1.496-3.495-4.326-3.495
			c-2.914,0-5.992,2.996-5.992,7.905c0,5.076,1.664,11.068,11.566,11.068c4.494,0,9.404-1.498,12.232-5.659
			c2.334-1.465,4.879-3.258,7.451-5.565c-0.029,0.428-0.047,0.842-0.047,1.238c0,6.99,3.912,9.986,8.904,9.986
			c3.445,0,9.09-1.083,13.674-7.697c1.709,5.392,6.154,7.697,12.205,7.697c8.293,0,14.344-4.345,18.852-9.744l-1.961,9.244h11.982
			l6.658-31.621c2.08-1.915,3.578-3.162,6.074-3.162c2.498,0,0.168,5.492,4.828,5.492c4.076,0,5.99-3.163,5.99-6.076
			C283.562,256.854,281.564,253.774,277.82,253.774z M241.291,257.436c1.582,0,2.08,1.332,2.08,3.412
			c0,6.907-5.658,13.314-12.066,13.73C232.971,266.34,237.047,257.436,241.291,257.436z M109.067,280.487
			c-0.999,4.826-4.494,7.322-6.907,7.322c-1.498,0-4.161-0.083-4.161-6.491c0-7.821,4.577-22.801,11.65-22.801
			c2.663,0,3.411,2.164,3.411,3.162L109.067,280.487z M146.262,287.81c-2.996,0-4.411-1.415-4.411-3.827
			c0-0.583,0.084-1.249,0.25-1.914l4.576-21.138c0.916-1.082,3.745-1.498,4.91-1.498c2.08,0,3.412,1.914,3.994,4.411
			c-0.666,0.832-1.08,1.914-1.08,3.412c0,1.663,0.414,2.746,1.33,3.328C155,278.739,151.006,287.81,146.262,287.81z"/>
	</g>
</g>
</svg>
