<?xml version="1.0" encoding="utf-8"?>
<!-- Generator: Adobe Illustrator 16.0.0, SVG Export Plug-In . SVG Version: 6.00 Build 0)  -->
<!DOCTYPE svg PUBLIC "-//W3C//DTD SVG 1.1//EN" "http://www.w3.org/Graphics/SVG/1.1/DTD/svg11.dtd">
<svg version="1.1" id="Layer_1" xmlns="http://www.w3.org/2000/svg" xmlns:xlink="http://www.w3.org/1999/xlink" x="0px" y="0px"
	 width="300px" height="300px" viewBox="0 0 300 300" enable-background="new 0 0 300 300" xml:space="preserve">
<g>
	<g>
		<g>
			<path fill="#FFFFFF" d="M200.215,164.864c1.271-4.255,2.084-8.704,2.387-13.294c25.033,3.903,43.105,8.435,43.105,8.435
				c-8.984-6.627-24.533-12.871-43.176-17.598c-0.574-6.853-2.277-13.383-4.934-19.403c18.826-12.299,21.766-20.681,21.766-20.681
				c-15.312,11.687-21.383,11.995-25.26,13.919c-0.004,0-0.006,0.001-0.008,0.001c-5.158-8.585-12.369-15.795-20.959-20.938
				c-6.441-4.518,1.568-19.354,7.846-18.636c1.525,0.193,3.08,0.302,4.66,0.302c20.615,0,37.326-16.713,37.326-37.328
				S206.258,2.317,185.643,2.317c-8.588,0-16.492,2.905-22.801,7.778c9.428,0.008,17.07,7.651,17.07,17.078
				c0,9.435-7.648,17.078-17.082,17.078c-6.031,0-11.33-3.128-14.366-7.85c-0.093,1.067-0.151,2.148-0.151,3.24
				c0,12.899,6.546,24.271,16.496,30.975c4.898,4.85-1.555,19.311-9.494,17.561c-4.299-0.965-8.771-1.476-13.361-1.476
				c-20.007,0-37.757,9.666-48.835,24.584c-6.107,7.358-17.67,0.312-16.898-5.719c0.553-1.999,0.854-4.1,0.854-6.273
				c0-11.077-7.675-20.355-17.996-22.815c0.571,1.089,0.895,2.324,0.895,3.642c0,4.351-3.528,7.883-7.879,7.883
				c-4.354,0-7.883-3.532-7.883-7.883c0-0.878,0.15-1.717,0.416-2.502c-8.5,3.525-14.476,11.901-14.476,21.676
				c0,12.956,10.501,23.462,23.46,23.462c5.786,0,11.08-2.097,15.171-5.569c5.484-3.492,17.205,4.627,14.645,13.817
				c-1.326,4.715-2.093,9.659-2.236,14.764h-0.005c-4.331,0-9.904,2.42-28.815-1.248c0,0,6.439,6.276,29.08,8.905
				c0.208,2.157,0.543,4.283,0.972,6.371c-18.659,8.266-34.723,18.322-43.142,27.176c0,0,26.855-14.719,44.957-20.391
				c1.103,3.344,2.491,6.547,4.131,9.604c-14.271,17.327-25.072,34.663-29.43,47.66c0,0,17.596-23.983,33.797-40.692
				c11.047,15.222,28.969,25.128,49.218,25.128c23.207,0,43.379-13.006,53.617-32.128c28.885,11.844,74.281,44.099,74.281,44.099
				C257.146,203.319,231.027,182.637,200.215,164.864"/>
		</g>
	</g>
	<g>
		<path fill="#FFFFFF" d="M31.942,271.897c-0.666-4.285-3.399-6.575-7.758-6.575c-6.724,0-8.94,6.797-8.94,12.412
			c0,5.468,2.142,12.043,8.718,12.043c4.876,0,7.684-3.103,8.349-7.757h10.122c-1.329,10.122-8.349,15.662-18.397,15.662
			c-11.525,0-19.284-8.127-19.284-19.578c0-11.896,7.093-20.688,19.506-20.688c9.013,0,17.289,4.728,17.955,14.48H31.942z"/>
		<path fill="#FFFFFF" d="M48.342,258.451h9.973v7.092h0.148c1.921-4.803,7.092-8.126,12.191-8.126c0.738,0,1.625,0.147,2.291,0.369
			v9.752c-0.96-0.222-2.512-0.369-3.769-0.369c-7.684,0-10.344,5.542-10.344,12.265v17.216h-10.49V258.451z"/>
		<path fill="#FFFFFF" d="M76.637,270.198c0.591-9.827,9.383-12.781,17.954-12.781c7.61,0,16.772,1.698,16.772,10.86v19.875
			c0,3.473,0.37,6.944,1.33,8.497h-10.639c-0.369-1.184-0.666-2.438-0.739-3.694c-3.324,3.473-8.201,4.728-12.856,4.728
			c-7.24,0-13.004-3.62-13.004-11.45c0-8.646,6.502-10.714,13.004-11.602c6.428-0.96,12.414-0.737,12.414-5.022
			c0-4.508-3.104-5.173-6.798-5.173c-3.99,0-6.575,1.626-6.945,5.763H76.637z M100.872,277.956
			c-1.774,1.553-5.468,1.625-8.719,2.218c-3.25,0.664-6.206,1.772-6.206,5.614c0,3.916,3.03,4.876,6.428,4.876
			c8.202,0,8.498-6.501,8.498-8.792V277.956z"/>
		<path fill="#FFFFFF" d="M119.488,243.896h10.491v19.211h0.147c2.586-3.916,7.315-5.689,12.043-5.689
			c7.61,0,15.812,6.132,15.812,20.096c0,14.038-8.202,20.17-15.812,20.17c-5.615,0-10.27-1.698-12.561-5.909h-0.148v4.876h-9.974
			V243.896z M138.55,265.322c-6.207,0-8.94,5.837-8.94,12.265c0,6.354,2.734,12.19,8.94,12.19c6.206,0,8.939-5.836,8.939-12.19
			C147.489,271.159,144.756,265.322,138.55,265.322z"/>
		<path fill="#FFFFFF" d="M165.736,243.896h6.281v52.754h-6.281V243.896z"/>
		<path fill="#FFFFFF" d="M215.607,296.5c-1.107,0.666-2.512,1.035-4.51,1.035c-3.248,0-5.318-1.772-5.318-5.91
			c-3.473,4.063-8.127,5.91-13.447,5.91c-6.945,0-12.633-3.102-12.633-10.713c0-8.646,6.428-10.491,12.93-11.747
			c6.945-1.33,12.855-0.887,12.855-5.615c0-5.468-4.506-6.354-8.496-6.354c-5.32,0-9.236,1.625-9.531,7.239h-6.281
			c0.369-9.457,7.684-12.781,16.182-12.781c6.871,0,14.334,1.551,14.334,10.491v19.653c0,2.955,0,4.286,1.996,4.286
			c0.516,0,1.105-0.074,1.92-0.37V296.5z M205.41,276.922c-2.438,1.773-7.168,1.847-11.379,2.587
			c-4.137,0.737-7.684,2.216-7.684,6.871c0,4.137,3.547,5.615,7.389,5.615c8.275,0,11.674-5.173,11.674-8.645V276.922z"/>
		<path fill="#FFFFFF" d="M221.662,243.896h6.281v19.727h0.146c2.068-4.21,6.945-6.058,12.191-6.058
			c11.748,0,17.584,9.31,17.584,20.097c0,10.786-5.762,19.874-17.436,19.874c-3.916,0-9.531-1.477-12.34-5.984h-0.146v5.099h-6.281
			V243.896z M239.395,263.106c-8.422,0-11.674,7.239-11.674,14.406c0,7.537,3.398,14.482,12.043,14.482
			c8.57,0,11.451-7.316,11.451-14.777C251.215,270.052,247.523,263.106,239.395,263.106z"/>
		<path fill="#FFFFFF" d="M269.092,284.606c0.223,5.615,5.1,7.389,10.271,7.389c3.916,0,9.236-0.888,9.236-5.69
			c0-4.876-6.207-5.688-12.488-7.092c-6.205-1.403-12.486-3.472-12.486-10.787c0-7.686,7.611-10.861,14.26-10.861
			c8.424,0,15.146,2.66,15.664,11.969h-6.279c-0.443-4.876-4.73-6.427-8.867-6.427c-3.768,0-8.127,1.033-8.127,4.876
			c0,4.507,6.648,5.245,12.486,6.648c6.281,1.404,12.486,3.474,12.486,10.861c0,9.088-8.498,12.043-16.254,12.043
			c-8.57,0-15.811-3.473-16.182-12.929H269.092z"/>
	</g>
</g>
</svg>
