<?xml version="1.0" encoding="utf-8"?>
<!-- Generator: Adobe Illustrator 16.0.0, SVG Export Plug-In . SVG Version: 6.00 Build 0)  -->
<!DOCTYPE svg PUBLIC "-//W3C//DTD SVG 1.1//EN" "http://www.w3.org/Graphics/SVG/1.1/DTD/svg11.dtd">
<svg version="1.1" id="Layer_1" xmlns="http://www.w3.org/2000/svg" xmlns:xlink="http://www.w3.org/1999/xlink" x="0px" y="0px"
	 width="300px" height="300px" viewBox="0 0 300 300" enable-background="new 0 0 300 300" xml:space="preserve">
<g>
	<g>
		<path fill="#FFFFFF" d="M28.297,278.596c0.226,5.354,3.317,8.899,8.748,8.899c3.092,0,6.108-1.434,7.314-4.299h11.991
			c-2.339,9.049-10.708,12.971-19.456,12.971c-12.744,0-21.417-7.691-21.417-20.813c0-11.99,9.576-20.588,21.115-20.588
			c14.027,0,21.04,10.559,20.437,23.83H28.297z M44.209,271.432c-0.226-4.373-3.317-7.994-7.616-7.994
			c-4.524,0-7.542,3.244-8.296,7.994H44.209z"/>
		<path fill="#FFFFFF" d="M88.924,270.225c-0.076-3.317-3.017-5.655-6.26-5.655c-7.164,0-8.296,6.108-8.296,11.539
			c0,5.052,2.188,10.256,7.617,10.256c4.45,0,6.711-2.564,7.315-6.713h12.443c-1.132,10.482-9.276,16.516-19.684,16.516
			c-11.764,0-20.512-8.068-20.512-20.059c0-12.444,7.919-21.343,20.512-21.343c9.729,0,18.4,5.129,19.306,15.459H88.924z"/>
		<path fill="#FFFFFF" d="M126.851,254.766c12.141,0,20.663,8.975,20.663,20.738c0,11.765-8.522,20.663-20.663,20.663
			c-12.142,0-20.587-8.898-20.587-20.663C106.264,263.74,114.709,254.766,126.851,254.766z M126.851,286.364
			c5.957,0,7.843-5.884,7.843-10.86s-1.886-10.935-7.843-10.935s-7.768,5.958-7.768,10.935S120.894,286.364,126.851,286.364z"/>
		<path fill="#FFFFFF" d="M154.22,241.191h12.821v19.004h0.151c2.638-3.62,6.335-5.43,11.161-5.43
			c11.085,0,16.514,9.652,16.514,19.834c0,11.01-5.203,21.567-17.496,21.567c-4.523,0-8.295-1.96-10.784-5.656h-0.149v4.525H154.22
			V241.191z M166.587,275.051c0,6.864,1.962,11.313,7.769,11.313c5.73,0,7.692-5.958,7.692-11.313
			c0-4.977-1.962-10.481-7.617-10.481C170.962,264.569,166.587,266.982,166.587,275.051z"/>
		<path fill="#FFFFFF" d="M220.426,254.766c12.142,0,20.663,8.975,20.663,20.738c0,11.765-8.521,20.663-20.663,20.663
			s-20.587-8.898-20.587-20.663C199.839,263.74,208.284,254.766,220.426,254.766z M220.426,286.364c5.958,0,7.844-5.884,7.844-10.86
			s-1.886-10.935-7.844-10.935c-5.956,0-7.768,5.958-7.768,10.935S214.47,286.364,220.426,286.364z"/>
		<path fill="#FFFFFF" d="M256.544,274.523l-12.442-18.627h14.177l5.506,9.352l5.505-9.352h13.575l-12.219,18.4l13.877,20.739
			h-14.177l-6.787-11.312l-6.412,11.312h-14.176L256.544,274.523z"/>
	</g>
	<path fill="#FFFFFF" d="M150,14.569c2.476,0,4.357,0.58,5.294,1.124l58.132,33.735l-58.131,33.738
		c-0.936,0.543-2.817,1.123-5.294,1.123s-4.358-0.58-5.296-1.123L86.574,49.428l58.132-33.736
		C145.643,15.148,147.524,14.569,150,14.569 M150,4.242c-3.792,0-7.585,0.84-10.478,2.519L66.001,49.428h0.001l73.521,42.668
		c2.893,1.68,6.686,2.519,10.479,2.519s7.586-0.839,10.479-2.519l73.52-42.668L160.478,6.761C157.585,5.082,153.792,4.242,150,4.242
		L150,4.242z"/>
	<path fill="#FFFFFF" d="M241.165,59.146v0.002l-73.709,42.336c-5.803,3.332-10.494,11.458-10.479,18.149l0.191,85.004v-0.002
		l73.711-42.335c5.803-3.333,10.494-11.458,10.479-18.149L241.165,59.146z"/>
	<g>
		<path fill="#FFFFFF" d="M69.12,77.997l58.282,33.475c2.58,1.481,5.302,6.195,5.295,9.171l-0.15,67.21l-58.283-33.475
			c-2.579-1.481-5.303-6.196-5.295-9.171L69.12,77.997 M58.834,60.178l-0.192,85.006c-0.015,6.691,4.677,14.816,10.479,18.149
			l73.711,42.335l0.001,0.003l0.19-85.005c0.015-6.691-4.676-14.817-10.479-18.149l-73.71-42.336L58.834,60.178L58.834,60.178z"/>
	</g>
</g>
</svg>
