<?xml version="1.0" encoding="utf-8"?>
<!-- Generator: Adobe Illustrator 16.0.0, SVG Export Plug-In . SVG Version: 6.00 Build 0)  -->
<!DOCTYPE svg PUBLIC "-//W3C//DTD SVG 1.1//EN" "http://www.w3.org/Graphics/SVG/1.1/DTD/svg11.dtd">
<svg version="1.1" id="Layer_1" xmlns="http://www.w3.org/2000/svg" xmlns:xlink="http://www.w3.org/1999/xlink" x="0px" y="0px"
	 width="100px" height="100px" viewBox="0 0 100 100" enable-background="new 0 0 100 100" xml:space="preserve">
<path fill="#FFFFFF" d="M90.923,4H9.078C6.273,4,4,6.273,4,9.078v81.845C4,93.727,6.273,96,9.078,96H53.14V60.373H41.151V46.488
	H53.14V36.249c0-11.883,7.259-18.354,17.858-18.354c5.078,0,9.442,0.378,10.714,0.546V30.86l-7.353,0.003
	c-5.765,0-6.881,2.74-6.881,6.759v8.865h13.749l-1.79,13.885H67.479V96h23.444C93.727,96,96,93.727,96,90.923V9.078
	C96,6.273,93.727,4,90.923,4"/>
</svg>
