<?xml version="1.0" encoding="utf-8"?>
<!-- Generator: Adobe Illustrator 16.0.0, SVG Export Plug-In . SVG Version: 6.00 Build 0)  -->
<!DOCTYPE svg PUBLIC "-//W3C//DTD SVG 1.1//EN" "http://www.w3.org/Graphics/SVG/1.1/DTD/svg11.dtd">
<svg version="1.1" id="Layer_1" xmlns="http://www.w3.org/2000/svg" xmlns:xlink="http://www.w3.org/1999/xlink" x="0px" y="0px"
	 width="100px" height="100px" viewBox="0 0 100 100" enable-background="new 0 0 100 100" xml:space="preserve">
<g>
	<path fill="#FFFFFF" d="M98.167,50c0,26.641-21.557,48.197-48.198,48.197C23.375,98.197,1.817,76.641,1.817,50
		c0-26.594,21.558-48.197,48.151-48.197C76.61,1.803,98.167,23.406,98.167,50z M62.065,89.161C78.634,83.7,90.635,68.263,90.635,50
		c0-22.452-18.214-40.666-40.666-40.666C27.564,9.334,9.348,27.548,9.348,50c0,18.263,12.05,33.748,28.666,39.161v-7.673
		c-11.862,2.683-14.356-5.554-14.356-5.554c-1.883-4.849-4.613-6.119-4.613-6.119c-3.812-2.589,0.283-2.542,0.283-2.542
		c4.189,0.283,6.401,4.283,6.401,4.283c3.954,6.778,10.497,4.331,12.52,3.342c0.612-2.965,2.918-3.577,3.671-3.812
		c-10.684-1.129-22.123-4.988-22.123-23.487c0-5.177,1.836-9.414,4.848-12.708c-0.471-1.224-2.118-6.025,0.471-12.568
		c0,0,4.001-1.269,13.038,4.849c3.766-1.036,7.813-1.553,11.861-1.601c4.001,0.047,8.049,0.564,11.862,1.601
		c9.037-6.118,12.99-4.849,12.99-4.849c2.59,6.543,0.988,11.344,0.472,12.568c3.06,3.294,4.895,7.531,4.895,12.708
		c0,18.499-11.438,22.312-22.121,23.44c1.929,1.317,3.953,3.812,3.953,8.566V89.161z"/>
</g>
</svg>
