<?xml version="1.0" encoding="utf-8"?>
<!-- Generator: Adobe Illustrator 16.0.0, SVG Export Plug-In . SVG Version: 6.00 Build 0)  -->
<!DOCTYPE svg PUBLIC "-//W3C//DTD SVG 1.1//EN" "http://www.w3.org/Graphics/SVG/1.1/DTD/svg11.dtd">
<svg version="1.1" id="Layer_1" xmlns="http://www.w3.org/2000/svg" xmlns:xlink="http://www.w3.org/1999/xlink" x="0px" y="0px"
	 width="100px" height="100px" viewBox="0 0 100 100" enable-background="new 0 0 100 100" xml:space="preserve">
<g>
	<path fill="#FFFFFF" d="M98.81,19.725c-3.592,1.593-7.451,2.669-11.503,3.153c4.135-2.479,7.311-6.403,8.807-11.081
		c-3.87,2.295-8.156,3.962-12.719,4.86c-3.653-3.893-8.858-6.325-14.618-6.325c-11.061,0-20.028,8.967-20.028,20.027
		c0,1.57,0.177,3.099,0.519,4.564c-16.645-0.835-31.403-8.809-41.28-20.926c-1.724,2.958-2.712,6.398-2.712,10.069
		c0,6.948,3.536,13.079,8.91,16.67c-3.283-0.104-6.371-1.006-9.071-2.506c-0.002,0.084-0.002,0.168-0.002,0.252
		c0,9.704,6.904,17.799,16.065,19.639c-1.68,0.458-3.45,0.703-5.276,0.703c-1.291,0-2.545-0.126-3.768-0.36
		c2.549,7.957,9.945,13.748,18.709,13.908c-6.854,5.373-15.49,8.574-24.874,8.574c-1.616,0-3.21-0.095-4.777-0.28
		c8.863,5.683,19.391,8.999,30.701,8.999c36.839,0,56.983-30.518,56.983-56.984c0-0.868-0.02-1.732-0.058-2.591
		C92.729,27.268,96.125,23.741,98.81,19.725L98.81,19.725z"/>
</g>
</svg>
