<?xml version="1.0" encoding="utf-8"?>
<!-- Generator: Adobe Illustrator 16.0.0, SVG Export Plug-In . SVG Version: 6.00 Build 0)  -->
<!DOCTYPE svg PUBLIC "-//W3C//DTD SVG 1.1//EN" "http://www.w3.org/Graphics/SVG/1.1/DTD/svg11.dtd">
<svg version="1.1" id="Layer_1" xmlns="http://www.w3.org/2000/svg" xmlns:xlink="http://www.w3.org/1999/xlink" x="0px" y="0px"
	 width="300px" height="800px" viewBox="0 0 300 800" enable-background="new 0 0 300 800" xml:space="preserve">
<g>
	<path fill="#1B9F9F" d="M264.648,733.437c0-11.597-10.766-22.365-24.848-22.365c-10.694,0-30.938,9.077-45.503,16.348
		c1.366-25.287,8.766-119.429,8.766-142.89c0-14.176-0.813-68.363-4.077-105.053H105.92c-3.266,36.689-6.53,90.877-6.53,105.053
		c0,12.915,5.422,116.449,6.385,142.924c-14.57-7.274-34.862-16.382-45.576-16.382c-14.079,0-24.847,10.769-24.847,22.365
		c0,0,30.646,0,81.996,0c-0.349-0.186-0.715-0.382-1.091-0.582c1.078,0,1.091,0,1.091,0s6.53-202.861,35.104-202.861
		c28.574,0,30.199,202.861,30.199,202.861s0.014,0,1.093,0c-0.377,0.2-0.743,0.396-1.093,0.582
		C234.004,733.437,264.648,733.437,264.648,733.437z"/>
	<polygon fill="#1B9F9F" points="170.562,260.412 177.186,267.246 174.699,260.412 	"/>
	<path fill="#1B9F9F" d="M94.614,207.998c0.025,1.862,0.083,3.657,0.159,5.363c-0.39,0.176-0.773,0.343-1.168,0.528
		c0,2.166,0,4.771,0,4.771s0.563-0.206,1.418-0.472c0.164,2.853,0.312,5.309,0.312,7.208c0,16.675,25.023,59.561,55.893,59.561
		c30.868,0,55.893-42.886,55.893-59.561c0-1.899,0.149-4.355,0.312-7.208c0.854,0.267,1.419,0.472,1.419,0.472s0-2.605,0-4.771
		c-0.396-0.185-0.778-0.353-1.169-0.528c0.096-2.197,0.167-4.543,0.17-6.992c0.469,0.688,0.958,1.353,1.498,1.96
		c0,0,13.254-43.07-15.736-55.495c-19.051-19.047-103.532-16.562-103.532,23.193c0,16.563,4.142,32.302,4.142,32.302
		S94.37,208.207,94.614,207.998z M203.753,224.903c0,15.673-23.517,55.973-52.525,55.973c-5.371,0-10.555-1.388-15.437-3.74
		l31.452-13.306l-38.515,6.211l5.037,6.045c-20.422-11.14-35.062-38.817-35.062-51.183c0-1.966-0.169-4.563-0.34-7.6
		c1.054-0.221,2.127-0.381,3.043-0.381c0,13.433,6.498,24.263,23.828,24.263c17.328,0,22.959-14.297,22.959-27.726
		c1.733,0,3.034-0.435,3.034-0.435s1.301,0.435,3.033,0.435c0,13.429,5.633,27.726,22.961,27.726
		c17.335,0,23.828-10.831,23.828-24.263c0.917,0,1.99,0.16,3.043,0.381C203.922,220.339,203.753,222.936,203.753,224.903z
		 M106.172,213.889c5.984-3.717,15.687-3.897,21.656-3.897c5.978,0,14.734,0.867,14.734,0.867c0,6.063,2.601,25.995-18.191,25.995
		C103.573,236.854,106.172,221.688,106.172,213.889z M159.894,210.859c0,0,8.757-0.867,14.733-0.867
		c5.972,0,15.675,0.18,21.656,3.897c0,7.798,2.603,22.965-18.197,22.965C157.295,236.854,159.894,216.922,159.894,210.859z
		 M204.347,211.914c-11.65-4.788-20.725-5.822-28.424-5.822c-8.664,0-15.595,1.736-24.695,1.736c-9.1,0-16.029-1.736-24.694-1.736
		c-7.696,0-16.774,1.034-28.425,5.822c-0.077-2.219-0.117-4.575-0.076-7.019c3.172-3.023,7.474-7.535,9.443-11.474
		c5.798,0,15.103-14.654,19.049-18.604c3.948-3.951,42.247-2.932,42.247-12.871c0,10.766-3.313,13.249-9.111,16.563
		c11.597,0,17.395-19.047,17.395-19.047s11.599,14.906,20.707,19.047c2.685,5.373,3.979,13.177,6.361,20.039
		C204.508,203.266,204.491,207.823,204.347,211.914z"/>
	<path fill="#1B9F9F" d="M189.565,319.283c6.147-22.525,11.396-35.894,11.396-35.894l-6.583-0.337l-25.435,21.968l-17.722,15.233
		l-17.716-15.233l-25.436-21.968l-6.577,0.337c0,0,5.244,13.369,11.397,35.894c1.688-4.891,6.683-10.74,15.018-13.201l23.313,20.028
		l23.318-20.028C182.878,308.543,187.878,314.392,189.565,319.283z"/>
	<path fill="#1B9F9F" d="M151.228,334.217c-1.601,0-2.896,1.299-2.896,2.899s1.296,2.898,2.896,2.898
		c1.603,0,2.897-1.298,2.897-2.898S152.83,334.217,151.228,334.217z"/>
	<path fill="#1B9F9F" d="M151.228,349.131c-1.601,0-2.896,1.298-2.896,2.899c0,1.6,1.296,2.898,2.896,2.898
		c1.603,0,2.897-1.298,2.897-2.898C154.125,350.429,152.83,349.131,151.228,349.131z"/>
</g>
</svg>
