<?xml version="1.0" encoding="utf-8"?>
<!-- Generator: Adobe Illustrator 16.0.0, SVG Export Plug-In . SVG Version: 6.00 Build 0)  -->
<!DOCTYPE svg PUBLIC "-//W3C//DTD SVG 1.1//EN" "http://www.w3.org/Graphics/SVG/1.1/DTD/svg11.dtd">
<svg version="1.1" id="Layer_1" xmlns="http://www.w3.org/2000/svg" xmlns:xlink="http://www.w3.org/1999/xlink" x="0px" y="0px"
	 width="425.197px" height="425.199px" viewBox="0 0 425.197 425.199" enable-background="new 0 0 425.197 425.199"
	 xml:space="preserve">
<g>
	<g>
		<g>
			<g>
				<path fill="#FFFFFF" d="M290.003,292.421c1.961-6.557,3.213-13.414,3.682-20.489c38.589,6.017,66.444,12.998,66.444,12.998
					c-13.849-10.214-37.816-19.841-66.556-27.125c-0.885-10.563-3.512-20.63-7.604-29.91c29.021-18.959,33.549-31.879,33.549-31.879
					c-23.604,18.015-32.958,18.491-38.937,21.456c-0.003,0-0.007,0.002-0.012,0.002c-7.951-13.234-19.065-24.347-32.307-32.278
					c-9.93-6.963,2.416-29.835,12.092-28.726c2.352,0.296,4.746,0.464,7.184,0.464c31.779,0,57.539-25.764,57.539-57.541
					s-25.76-57.538-57.539-57.538c-13.237,0-25.424,4.48-35.146,11.991c14.533,0.012,26.312,11.796,26.312,26.327
					c0,14.543-11.789,26.325-26.33,26.325c-9.297,0-17.466-4.82-22.146-12.1c-0.143,1.646-0.23,3.312-0.23,4.996
					c0,19.885,10.09,37.412,25.428,47.747c7.548,7.476-2.399,29.769-14.635,27.069c-6.628-1.486-13.523-2.273-20.6-2.273
					c-30.84,0-58.203,14.9-75.278,37.897c-9.416,11.339-27.239,0.478-26.049-8.815c0.853-3.082,1.317-6.322,1.317-9.674
					c0-17.072-11.834-31.376-27.741-35.168c0.879,1.68,1.378,3.583,1.378,5.613c0,6.708-5.438,12.15-12.145,12.15
					c-6.713,0-12.153-5.442-12.153-12.15c0-1.354,0.231-2.645,0.641-3.857c-13.103,5.436-22.315,18.348-22.315,33.412
					c0,19.975,16.189,36.168,36.166,36.168c8.918,0,17.079-3.23,23.387-8.584c8.451-5.383,26.521,7.133,22.575,21.301
					c-2.044,7.268-3.228,14.887-3.449,22.756h-0.007c-6.678,0-15.268,3.73-44.418-1.924c0,0,9.926,9.678,44.826,13.73
					c0.323,3.322,0.838,6.6,1.5,9.817c-28.764,12.74-53.527,28.242-66.506,41.894c0,0,41.398-22.689,69.302-31.435
					c1.7,5.154,3.841,10.093,6.368,14.804c-22,26.711-38.648,53.438-45.365,73.471c0,0,27.123-36.969,52.097-62.729
					c17.029,23.465,44.655,38.735,75.87,38.735c35.774,0,66.868-20.047,82.65-49.524c44.528,18.254,114.508,67.979,114.508,67.979
					C377.764,351.705,337.498,319.821,290.003,292.421"/>
			</g>
		</g>
	</g>
</g>
</svg>
