<?xml version="1.0" encoding="utf-8"?>
<!-- Generator: Adobe Illustrator 16.0.0, SVG Export Plug-In . SVG Version: 6.00 Build 0)  -->
<!DOCTYPE svg PUBLIC "-//W3C//DTD SVG 1.1//EN" "http://www.w3.org/Graphics/SVG/1.1/DTD/svg11.dtd">
<svg version="1.1" id="Layer_1" xmlns="http://www.w3.org/2000/svg" xmlns:xlink="http://www.w3.org/1999/xlink" x="0px" y="0px"
	 width="300px" height="800px" viewBox="0 0 300 800" enable-background="new 0 0 300 800" xml:space="preserve">
<g>
	<path fill="#1B9F9F" d="M194.082,717.932c0-10.837,8.98-107.555,8.98-133.402c0-14.176-0.812-68.363-4.075-105.053H105.92
		c-3.266,36.689-6.529,90.877-6.529,105.053c0,14.172,6.529,122.565,6.529,133.402c11.43,0,11.43,0,11.43,0
		s6.528-187.938,35.101-187.938c28.575,0,30.202,187.938,30.202,187.938S182.652,717.932,194.082,717.932z"/>
	<path fill="#1B9F9F" d="M35.352,733.437c0,0,30.645,0,81.998,0c-12.425-6.626-43.069-22.365-57.15-22.365
		C46.117,711.071,35.352,721.84,35.352,733.437z"/>
	<path fill="#1B9F9F" d="M239.802,711.071c-14.082,0-44.727,15.739-57.149,22.365c51.352,0,81.996,0,81.996,0
		C264.648,721.84,253.882,711.071,239.802,711.071z"/>
	<polygon fill="#1B9F9F" points="151.226,256.859 141.774,256.859 143.326,261.775 151.226,264.202 151.229,264.202 
		159.127,261.775 160.679,256.859 151.229,256.859 	"/>
	<path fill="#1B9F9F" d="M89.133,185.4l-1.706,5.11l-2.044,14.312l-0.678,8.862l2.722,7.498v12.947l7.902-9.382
		c0.004,0.221,0.007,0.44,0.007,0.648c0,16.675,25.021,59.561,55.893,59.561c30.551,0,55.364-41.999,55.867-59.026l6.907,8.199
		v-12.947l4.772-7.498l-2.727-8.862l-2.046-14.312l-2.724-8.182l4.77-2.042l0.239-8.863l-4.568-8.858l-6.136-9.304l-2.521-2.967
		l0.241-3.408l-5.899-4.772h5.459l-4.534-3.644l-2.727-2.487l-6.816-3.407h-4.774v-6.816l-6.813-5.455h-12.949l-4.771-4.769h-6.138
		l-2.727-2.045l-8.178,1.703l-1.364,2.728l-10.223,1.022l-1.709-1.365l-13.764,4.09l0.914,4.538l-5.692,2.273l-7.838,5.452h-2.728
		l-6.134,6.137h4.089l-5.311,5.454l-0.484,11.924l-8.513,10.909l0.68,6.814L89.133,185.4z M194.621,170.626l3.563,21.255
		c-0.612-0.148-1.256-0.324-1.875-0.531c-2.253-0.753-10.891-1.879-20.097-1.879c-9.205,0-15.592,0.755-18.223,3.002
		c-2.629,2.261-6.762,2.261-6.762,2.261s-4.135,0-6.764-2.261c-2.629-2.247-9.019-3.002-18.223-3.002
		c-9.202,0-17.844,1.126-20.096,1.879c-1.04,0.348-2.152,0.61-3.059,0.796l0.6-12.204l21.028-11.924l15.675,4.768l25.222-17.039
		l15.676,12.949l8.664-3.127C191.705,167.15,193.257,168.842,194.621,170.626z M193.684,210.169
		c-0.751,4.884-4.396,11.643-15.402,11.643c-11.012,0-12.774-3.755-15.78-7.51c-3.005-3.76-4.506-9.021-4.506-12.022
		c0-3.01,0.372-5.262,3-7.893c2.632-2.631,7.893-2.631,15.218-2.631c7.327,0,14.008,1.806,15.967,2.631
		C195.413,195.744,194.437,205.282,193.684,210.169z M144.46,202.28c0,3.001-1.5,8.263-4.507,12.022
		c-3.005,3.754-4.767,7.51-15.776,7.51s-14.648-6.759-15.403-11.643c-0.754-4.888-1.729-14.426,1.505-15.782
		c1.956-0.825,8.638-2.631,15.964-2.631s12.586,0,15.215,2.631C144.09,197.018,144.46,199.27,144.46,202.28z M166.681,267.619
		l-15.452,3.417l-15.456-3.417l-1.658-20.99l14.626-1.656h4.973l14.627,1.656L166.681,267.619z M203.753,224.903
		c0,2.032-0.403,4.483-1.154,7.202l-17.319,20.957l-11.974,6.166l0.833-19.23l-22.91-3.875h-0.003l-22.912,3.875l0.835,19.23
		l-11.975-6.166l-17.315-20.952c-0.752-2.721-1.155-5.173-1.155-7.207c0-1.339-0.079-2.975-0.183-4.837l3.907-23.316
		c0.934,0.796,2.149,2.069,2.591,3.619c0.749,2.632-0.192,13.711,5.26,19.159c5.445,5.449,7.134,4.511,13.147,4.511
		c6.01,0,15.03,0.751,19.914-9.769c4.882-10.521,3.38-15.029,7.889-15.029c4.506,0,3.006,4.508,7.889,15.029
		c4.882,10.52,13.9,9.769,19.914,9.769c6.01,0,7.702,0.938,13.148-4.511c5.449-5.447,4.509-16.526,5.262-19.159
		c0.307-1.083,0.997-2.026,1.701-2.774l3.955,23.588l0.734,0.874C203.784,223.107,203.753,224.065,203.753,224.903z"/>
	<path fill="#1B9F9F" d="M191.905,283.052l-25.434,21.968l-22.854,36.019l2.931-0.133l23.347-35.364
		c9.647,2.015,15.365,8.439,17.197,13.741c6.147-22.525,13.884-38.381,13.884-38.381L191.905,283.052z"/>
	<path fill="#1B9F9F" d="M135.99,305.02l-25.436-21.968l-9.065-2.15c0,0,7.729,15.856,13.885,38.381
		c1.833-5.31,7.562-11.745,17.234-13.75l15.343,22.74l1.354-2.306L135.99,305.02z"/>
	<rect x="169.395" y="343.526" fill="#1B9F9F" width="31.181" height="3.943"/>
</g>
</svg>
